# MagicaVoxel @ Ephtracy

# group
g Autumn_tree

# material
mtllib Autumn_tree.mtl
usemtl palette

# normals
vn -1 0 0
vn 1 0 0
vn 0 0 1
vn 0 0 -1
vn 0 -1 0
vn 0 1 0

# texcoords
vt 0.0644531 0.5
vt 0.0917969 0.5
vt 0.111328 0.5
vt 0.115234 0.5
vt 0.138672 0.5
vt 0.892578 0.5
vt 0.990234 0.5

# verts
v -2.5 3 1.5
v -2.5 3 0.5
v -2.5 3 -0.5
v -2.5 4 1.5
v -2.5 4 0.5
v -2.5 4 -0.5
v -2.5 4 -1.5
v -2.5 4 -2.5
v -2.5 5 1.5
v -2.5 5 0.5
v -2.5 5 -0.5
v -2.5 5 -1.5
v -2.5 5 -2.5
v -2.5 6 -0.5
v -2.5 6 -1.5
v -2.5 6 -2.5
v -1.5 2 0.5
v -1.5 2 -0.5
v -1.5 3 0.5
v -1.5 3 -0.5
v -1.5 3 -1.5
v -1.5 4 -0.5
v -1.5 4 -1.5
v -1.5 5 0.5
v -1.5 5 -0.5
v -1.5 6 0.5
v -1.5 6 -0.5
v -1.5 6 -1.5
v -1.5 7 0.5
v -1.5 7 -0.5
v -1.5 7 -1.5
v -0.5 0 0.5
v -0.5 0 -0.5
v -0.5 2 0.5
v -0.5 2 -0.5
v -0.5 4 2.5
v -0.5 4 1.5
v -0.5 5 2.5
v -0.5 5 1.5
v -0.5 5 0.5
v -0.5 6 2.5
v -0.5 6 1.5
v -0.5 6 0.5
v 0.5 3 0.5
v 0.5 3 -0.5
v 0.5 3 -1.5
v 0.5 4 0.5
v 0.5 4 -0.5
v 0.5 4 -1.5
v 0.5 4 -2.5
v 0.5 5 -1.5
v 0.5 5 -2.5
v 0.5 6 -1.5
v 0.5 6 -2.5
v -0.5 3 0.5
v -0.5 3 -0.5
v -0.5 3 -1.5
v -0.5 4 0.5
v -0.5 4 -0.5
v -0.5 4 -1.5
v -0.5 4 -2.5
v -0.5 5 -1.5
v -0.5 5 -2.5
v -0.5 6 -1.5
v -0.5 6 -2.5
v 0.5 0 0.5
v 0.5 0 -0.5
v 0.5 3 1.5
v 0.5 3 0.5
v 0.5 3 -0.5
v 0.5 4 1.5
v 0.5 4 0.5
v 0.5 5 0.5
v 0.5 5 -0.5
v 0.5 6 0.5
v 0.5 6 -0.5
v 0.5 6 -1.5
v 0.5 7 0.5
v 0.5 7 -0.5
v 0.5 7 -1.5
v 1.5 3 0.5
v 1.5 3 -0.5
v 1.5 3 -1.5
v 1.5 4 2.5
v 1.5 4 1.5
v 1.5 4 0.5
v 1.5 4 -0.5
v 1.5 4 -1.5
v 1.5 5 2.5
v 1.5 5 1.5
v 1.5 5 0.5
v 1.5 5 -0.5
v 1.5 6 2.5
v 1.5 6 1.5
v 1.5 6 0.5
v 2.5 4 -0.5
v 2.5 4 -1.5
v 2.5 4 -2.5
v 2.5 5 -0.5
v 2.5 5 -1.5
v 2.5 5 -2.5
v 2.5 6 -0.5
v 2.5 6 -1.5
v 2.5 6 -2.5
v -0.5 4 2.5
v -0.5 5 2.5
v -0.5 6 2.5
v 0.5 4 2.5
v 0.5 5 2.5
v 0.5 6 2.5
v 1.5 4 2.5
v 1.5 5 2.5
v 1.5 6 2.5
v -2.5 3 1.5
v -2.5 4 1.5
v -2.5 5 1.5
v -1.5 3 1.5
v -1.5 4 1.5
v -1.5 5 1.5
v -0.5 3 1.5
v -0.5 4 1.5
v -0.5 5 1.5
v 0.5 3 1.5
v 0.5 4 1.5
v -1.5 2 0.5
v -1.5 3 0.5
v -1.5 5 0.5
v -1.5 6 0.5
v -1.5 7 0.5
v -0.5 0 0.5
v -0.5 2 0.5
v -0.5 3 0.5
v -0.5 5 0.5
v -0.5 6 0.5
v -0.5 7 0.5
v 0.5 0 0.5
v 0.5 3 0.5
v 0.5 4 0.5
v 0.5 6 0.5
v 0.5 7 0.5
v 1.5 3 0.5
v 1.5 4 0.5
v -2.5 5 -0.5
v -2.5 6 -0.5
v -1.5 5 -0.5
v -1.5 6 -0.5
v 0.5 5 -0.5
v 0.5 6 -0.5
v 1.5 4 -0.5
v 1.5 5 -0.5
v 1.5 6 -0.5
v 2.5 4 -0.5
v 2.5 5 -0.5
v 2.5 6 -0.5
v -0.5 3 0.5
v -0.5 4 0.5
v 0.5 3 0.5
v 0.5 4 0.5
v 0.5 5 0.5
v 0.5 6 0.5
v 1.5 5 0.5
v 1.5 6 0.5
v -2.5 3 -0.5
v -2.5 4 -0.5
v -1.5 2 -0.5
v -1.5 3 -0.5
v -1.5 4 -0.5
v -0.5 0 -0.5
v -0.5 2 -0.5
v -0.5 3 -0.5
v 0.5 0 -0.5
v 0.5 3 -0.5
v -1.5 3 -1.5
v -1.5 4 -1.5
v -1.5 6 -1.5
v -1.5 7 -1.5
v -0.5 3 -1.5
v -0.5 4 -1.5
v -0.5 5 -1.5
v -0.5 6 -1.5
v -0.5 7 -1.5
v 0.5 3 -1.5
v 0.5 4 -1.5
v 0.5 5 -1.5
v 0.5 6 -1.5
v 0.5 7 -1.5
v 1.5 3 -1.5
v 1.5 4 -1.5
v -2.5 4 -2.5
v -2.5 5 -2.5
v -2.5 6 -2.5
v -1.5 4 -2.5
v -1.5 5 -2.5
v -1.5 6 -2.5
v -0.5 4 -2.5
v -0.5 5 -2.5
v -0.5 6 -2.5
v 0.5 4 -2.5
v 0.5 5 -2.5
v 0.5 6 -2.5
v 1.5 4 -2.5
v 1.5 5 -2.5
v 1.5 6 -2.5
v 2.5 4 -2.5
v 2.5 5 -2.5
v 2.5 6 -2.5
v -0.5 0 0.5
v 0.5 0 0.5
v -0.5 0 -0.5
v 0.5 0 -0.5
v -1.5 2 0.5
v -0.5 2 0.5
v -1.5 2 -0.5
v -0.5 2 -0.5
v -2.5 3 1.5
v -1.5 3 1.5
v -0.5 3 1.5
v 0.5 3 1.5
v -2.5 3 0.5
v -1.5 3 0.5
v -0.5 3 0.5
v 0.5 3 0.5
v 1.5 3 0.5
v -2.5 3 -0.5
v -1.5 3 -0.5
v -0.5 3 -0.5
v 0.5 3 -0.5
v 1.5 3 -0.5
v -1.5 3 -1.5
v -0.5 3 -1.5
v 0.5 3 -1.5
v 1.5 3 -1.5
v -0.5 4 2.5
v 0.5 4 2.5
v 1.5 4 2.5
v -0.5 4 1.5
v 0.5 4 1.5
v 1.5 4 1.5
v -0.5 4 0.5
v 0.5 4 0.5
v 1.5 4 0.5
v -2.5 4 -0.5
v -1.5 4 -0.5
v -0.5 4 -0.5
v 0.5 4 -0.5
v 1.5 4 -0.5
v 2.5 4 -0.5
v -2.5 4 -1.5
v -1.5 4 -1.5
v -0.5 4 -1.5
v 0.5 4 -1.5
v 1.5 4 -1.5
v 2.5 4 -1.5
v -2.5 4 -2.5
v -1.5 4 -2.5
v -0.5 4 -2.5
v 0.5 4 -2.5
v 1.5 4 -2.5
v 2.5 4 -2.5
v -0.5 3 0.5
v 0.5 3 0.5
v -0.5 3 -0.5
v 0.5 3 -0.5
v -2.5 5 1.5
v -1.5 5 1.5
v -0.5 5 1.5
v -2.5 5 0.5
v -1.5 5 0.5
v -0.5 5 0.5
v 0.5 5 0.5
v 1.5 5 0.5
v -2.5 5 -0.5
v -1.5 5 -0.5
v 0.5 5 -0.5
v 1.5 5 -0.5
v -0.5 6 2.5
v 0.5 6 2.5
v 1.5 6 2.5
v -0.5 6 1.5
v 0.5 6 1.5
v 1.5 6 1.5
v -0.5 6 0.5
v 0.5 6 0.5
v 1.5 6 0.5
v -2.5 6 -0.5
v -1.5 6 -0.5
v 0.5 6 -0.5
v 1.5 6 -0.5
v 2.5 6 -0.5
v -2.5 6 -1.5
v -1.5 6 -1.5
v -0.5 6 -1.5
v 0.5 6 -1.5
v 1.5 6 -1.5
v 2.5 6 -1.5
v -2.5 6 -2.5
v -1.5 6 -2.5
v -0.5 6 -2.5
v 0.5 6 -2.5
v 1.5 6 -2.5
v 2.5 6 -2.5
v -1.5 7 0.5
v -0.5 7 0.5
v 0.5 7 0.5
v -1.5 7 -0.5
v -0.5 7 -0.5
v 0.5 7 -0.5
v -1.5 7 -1.5
v -0.5 7 -1.5
v 0.5 7 -1.5

# faces
f 4/4/1 2/4/1 1/4/1
f 5/3/1 3/3/1 2/3/1
f 5/4/1 2/4/1 4/4/1
f 6/3/1 3/3/1 5/3/1
f 9/5/1 5/5/1 4/5/1
f 10/2/1 6/2/1 5/2/1
f 10/5/1 5/5/1 9/5/1
f 10/2/1 7/2/1 6/2/1
f 11/2/1 7/2/1 10/2/1
f 12/4/1 8/4/1 7/4/1
f 12/2/1 7/2/1 11/2/1
f 13/4/1 8/4/1 12/4/1
f 14/4/1 12/4/1 11/4/1
f 15/1/1 13/1/1 12/1/1
f 15/4/1 12/4/1 14/4/1
f 16/1/1 13/1/1 15/1/1
f 19/7/1 18/7/1 17/7/1
f 20/7/1 18/7/1 19/7/1
f 22/7/1 21/7/1 20/7/1
f 23/7/1 21/7/1 22/7/1
f 26/2/1 25/2/1 24/2/1
f 27/2/1 25/2/1 26/2/1
f 29/4/1 27/4/1 26/4/1
f 30/2/1 28/2/1 27/2/1
f 30/4/1 27/4/1 29/4/1
f 31/2/1 28/2/1 30/2/1
f 34/7/1 33/7/1 32/7/1
f 35/7/1 33/7/1 34/7/1
f 38/4/1 37/4/1 36/4/1
f 39/4/1 37/4/1 38/4/1
f 41/1/1 39/1/1 38/1/1
f 42/2/1 40/2/1 39/2/1
f 42/1/1 39/1/1 41/1/1
f 43/2/1 40/2/1 42/2/1
f 47/4/1 45/4/1 44/4/1
f 48/7/1 46/7/1 45/7/1
f 48/4/1 45/4/1 47/4/1
f 49/7/1 46/7/1 48/7/1
f 51/5/1 50/5/1 49/5/1
f 52/5/1 50/5/1 51/5/1
f 53/2/1 52/2/1 51/2/1
f 54/2/1 52/2/1 53/2/1
f 55/5/2 56/5/2 58/5/2
f 56/7/2 57/7/2 59/7/2
f 58/5/2 56/5/2 59/5/2
f 59/7/2 57/7/2 60/7/2
f 60/1/2 61/1/2 62/1/2
f 62/1/2 61/1/2 63/1/2
f 62/2/2 63/2/2 64/2/2
f 64/2/2 63/2/2 65/2/2
f 66/7/2 67/7/2 69/7/2
f 69/7/2 67/7/2 70/7/2
f 68/7/2 69/7/2 71/7/2
f 71/7/2 69/7/2 72/7/2
f 73/2/2 74/2/2 75/2/2
f 75/2/2 74/2/2 76/2/2
f 75/5/2 76/5/2 78/5/2
f 76/3/2 77/3/2 79/3/2
f 78/5/2 76/5/2 79/5/2
f 79/3/2 77/3/2 80/3/2
f 81/4/2 82/4/2 86/4/2
f 82/7/2 83/7/2 87/7/2
f 86/4/2 82/4/2 87/4/2
f 87/7/2 83/7/2 88/7/2
f 84/3/2 85/3/2 89/3/2
f 85/1/2 86/1/2 90/1/2
f 89/3/2 85/3/2 90/3/2
f 86/5/2 87/5/2 91/5/2
f 90/1/2 86/1/2 91/1/2
f 91/5/2 87/5/2 92/5/2
f 89/2/2 90/2/2 93/2/2
f 90/4/2 91/4/2 94/4/2
f 93/2/2 90/2/2 94/2/2
f 94/4/2 91/4/2 95/4/2
f 96/3/2 97/3/2 99/3/2
f 97/2/2 98/2/2 100/2/2
f 99/3/2 97/3/2 100/3/2
f 100/2/2 98/2/2 101/2/2
f 99/2/2 100/2/2 102/2/2
f 100/4/2 101/4/2 103/4/2
f 102/2/2 100/2/2 103/2/2
f 103/4/2 101/4/2 104/4/2
f 108/4/3 106/4/3 105/4/3
f 109/1/3 107/1/3 106/1/3
f 109/4/3 106/4/3 108/4/3
f 110/1/3 107/1/3 109/1/3
f 111/3/3 109/3/3 108/3/3
f 112/2/3 110/2/3 109/2/3
f 112/3/3 109/3/3 111/3/3
f 113/2/3 110/2/3 112/2/3
f 117/4/3 115/4/3 114/4/3
f 118/5/3 116/5/3 115/5/3
f 118/4/3 115/4/3 117/4/3
f 119/5/3 116/5/3 118/5/3
f 120/2/3 118/2/3 117/2/3
f 121/3/3 119/3/3 118/3/3
f 121/2/3 118/2/3 120/2/3
f 122/3/3 119/3/3 121/3/3
f 123/7/3 121/7/3 120/7/3
f 124/7/3 121/7/3 123/7/3
f 131/7/3 126/7/3 125/7/3
f 132/7/3 126/7/3 131/7/3
f 133/2/3 128/2/3 127/2/3
f 134/4/3 129/4/3 128/4/3
f 134/2/3 128/2/3 133/2/3
f 135/4/3 129/4/3 134/4/3
f 136/7/3 132/7/3 131/7/3
f 136/7/3 131/7/3 130/7/3
f 137/7/3 132/7/3 136/7/3
f 139/5/3 135/5/3 134/5/3
f 140/5/3 135/5/3 139/5/3
f 141/4/3 138/4/3 137/4/3
f 142/4/3 138/4/3 141/4/3
f 145/4/3 144/4/3 143/4/3
f 146/4/3 144/4/3 145/4/3
f 150/3/3 148/3/3 147/3/3
f 151/3/3 148/3/3 150/3/3
f 152/3/3 150/3/3 149/3/3
f 153/2/3 151/2/3 150/2/3
f 153/3/3 150/3/3 152/3/3
f 154/2/3 151/2/3 153/2/3
f 155/7/4 156/7/4 157/7/4
f 157/7/4 156/7/4 158/7/4
f 159/4/4 160/4/4 161/4/4
f 161/4/4 160/4/4 162/4/4
f 163/3/4 164/3/4 166/3/4
f 166/3/4 164/3/4 167/3/4
f 165/7/4 166/7/4 169/7/4
f 169/7/4 166/7/4 170/7/4
f 168/7/4 169/7/4 171/7/4
f 169/7/4 170/7/4 171/7/4
f 171/7/4 170/7/4 172/7/4
f 173/7/4 174/7/4 177/7/4
f 177/7/4 174/7/4 178/7/4
f 175/2/4 176/2/4 180/2/4
f 180/2/4 176/2/4 181/2/4
f 178/3/4 179/3/4 183/3/4
f 179/2/4 180/2/4 184/2/4
f 183/3/4 179/3/4 184/3/4
f 180/3/4 181/3/4 185/3/4
f 184/2/4 180/2/4 185/2/4
f 185/3/4 181/3/4 186/3/4
f 182/7/4 183/7/4 187/7/4
f 187/7/4 183/7/4 188/7/4
f 189/4/4 190/4/4 192/4/4
f 190/1/4 191/1/4 193/1/4
f 192/4/4 190/4/4 193/4/4
f 193/1/4 191/1/4 194/1/4
f 192/1/4 193/1/4 195/1/4
f 193/2/4 194/2/4 196/2/4
f 195/1/4 193/1/4 196/1/4
f 196/2/4 194/2/4 197/2/4
f 198/5/4 199/5/4 201/5/4
f 199/2/4 200/2/4 202/2/4
f 201/5/4 199/5/4 202/5/4
f 202/2/4 200/2/4 203/2/4
f 201/2/4 202/2/4 204/2/4
f 202/4/4 203/4/4 205/4/4
f 204/2/4 202/2/4 205/2/4
f 205/4/4 203/4/4 206/4/4
f 209/7/5 208/7/5 207/7/5
f 210/7/5 208/7/5 209/7/5
f 213/7/5 212/7/5 211/7/5
f 214/7/5 212/7/5 213/7/5
f 219/4/5 216/4/5 215/4/5
f 220/2/5 217/2/5 216/2/5
f 220/4/5 216/4/5 219/4/5
f 221/7/5 218/7/5 217/7/5
f 221/2/5 217/2/5 220/2/5
f 222/7/5 218/7/5 221/7/5
f 224/3/5 220/3/5 219/3/5
f 225/3/5 220/3/5 224/3/5
f 227/4/5 223/4/5 222/4/5
f 228/4/5 223/4/5 227/4/5
f 229/7/5 226/7/5 225/7/5
f 230/7/5 226/7/5 229/7/5
f 231/7/5 228/7/5 227/7/5
f 232/7/5 228/7/5 231/7/5
f 236/4/5 234/4/5 233/4/5
f 237/3/5 235/3/5 234/3/5
f 237/4/5 234/4/5 236/4/5
f 238/3/5 235/3/5 237/3/5
f 240/1/5 238/1/5 237/1/5
f 241/1/5 238/1/5 240/1/5
f 244/5/5 240/5/5 239/5/5
f 245/5/5 240/5/5 244/5/5
f 248/2/5 243/2/5 242/2/5
f 249/2/5 243/2/5 248/2/5
f 250/3/5 245/3/5 244/3/5
f 251/3/5 245/3/5 250/3/5
f 252/3/5 247/3/5 246/3/5
f 253/3/5 247/3/5 252/3/5
f 254/4/5 249/4/5 248/4/5
f 255/1/5 250/1/5 249/1/5
f 255/4/5 249/4/5 254/4/5
f 256/1/5 250/1/5 255/1/5
f 257/5/5 252/5/5 251/5/5
f 258/2/5 253/2/5 252/2/5
f 258/5/5 252/5/5 257/5/5
f 259/2/5 253/2/5 258/2/5
f 260/7/6 261/7/6 262/7/6
f 262/7/6 261/7/6 263/7/6
f 264/5/6 265/5/6 267/5/6
f 265/3/6 266/3/6 268/3/6
f 267/5/6 265/5/6 268/5/6
f 268/3/6 266/3/6 269/3/6
f 267/2/6 268/2/6 272/2/6
f 272/2/6 268/2/6 273/2/6
f 270/5/6 271/5/6 274/5/6
f 274/5/6 271/5/6 275/5/6
f 276/1/6 277/1/6 279/1/6
f 277/2/6 278/2/6 280/2/6
f 279/1/6 277/1/6 280/1/6
f 280/2/6 278/2/6 281/2/6
f 279/2/6 280/2/6 282/2/6
f 280/4/6 281/4/6 283/4/6
f 282/2/6 280/2/6 283/2/6
f 283/4/6 281/4/6 284/4/6
f 285/4/6 286/4/6 290/4/6
f 290/4/6 286/4/6 291/4/6
f 287/3/6 288/3/6 293/3/6
f 288/2/6 289/2/6 294/2/6
f 293/3/6 288/3/6 294/3/6
f 294/2/6 289/2/6 295/2/6
f 290/1/6 291/1/6 296/1/6
f 291/2/6 292/2/6 297/2/6
f 296/1/6 291/1/6 297/1/6
f 297/2/6 292/2/6 298/2/6
f 293/2/6 294/2/6 299/2/6
f 294/4/6 295/4/6 300/4/6
f 299/2/6 294/2/6 300/2/6
f 300/4/6 295/4/6 301/4/6
f 302/4/6 303/4/6 305/4/6
f 303/5/6 304/5/6 306/5/6
f 305/4/6 303/4/6 306/4/6
f 306/5/6 304/5/6 307/5/6
f 305/2/6 306/2/6 308/2/6
f 306/3/6 307/3/6 309/3/6
f 308/2/6 306/2/6 309/2/6
f 309/3/6 307/3/6 310/3/6
