# MagicaVoxel @ Ephtracy

# group
g Heart

# material
mtllib Heart.mtl
usemtl palette

# normals
vn -1 0 0
vn 1 0 0
vn 0 0 1
vn 0 0 -1
vn 0 -1 0
vn 0 1 0

# texcoords
vt 0.841797 0.5
vt 0.853516 0.5
vt 0.966797 0.5
vt 0.994141 0.5

# verts
v -8 8 0.5
v -8 8 -0.5
v -8 12 0.5
v -8 12 -0.5
v -7 6 0.5
v -7 6 -0.5
v -7 8 0.5
v -7 8 -0.5
v -7 12 0.5
v -7 12 -0.5
v -7 13 0.5
v -7 13 -0.5
v -6 5 0.5
v -6 5 -0.5
v -6 6 0.5
v -6 6 -0.5
v -6 13 0.5
v -6 13 -0.5
v -6 14 0.5
v -6 14 -0.5
v -5 4 0.5
v -5 4 -0.5
v -5 5 0.5
v -5 5 -0.5
v -5 14 0.5
v -5 14 -0.5
v -5 15 0.5
v -5 15 -0.5
v -4 3 0.5
v -4 3 -0.5
v -4 4 0.5
v -4 4 -0.5
v -3 2 0.5
v -3 2 -0.5
v -3 3 0.5
v -3 3 -0.5
v -2 1 0.5
v -2 1 -0.5
v -2 2 0.5
v -2 2 -0.5
v -1 0 0.5
v -1 0 -0.5
v -1 1 0.5
v -1 1 -0.5
v 1 13 0.5
v 1 13 -0.5
v 1 14 0.5
v 1 14 -0.5
v 2 14 0.5
v 2 14 -0.5
v 2 15 0.5
v 2 15 -0.5
v -2 14 0.5
v -2 14 -0.5
v -2 15 0.5
v -2 15 -0.5
v -1 13 0.5
v -1 13 -0.5
v -1 14 0.5
v -1 14 -0.5
v 1 0 0.5
v 1 0 -0.5
v 1 1 0.5
v 1 1 -0.5
v 2 1 0.5
v 2 1 -0.5
v 2 2 0.5
v 2 2 -0.5
v 3 2 0.5
v 3 2 -0.5
v 3 3 0.5
v 3 3 -0.5
v 4 3 0.5
v 4 3 -0.5
v 4 4 0.5
v 4 4 -0.5
v 5 4 0.5
v 5 4 -0.5
v 5 5 0.5
v 5 5 -0.5
v 5 14 0.5
v 5 14 -0.5
v 5 15 0.5
v 5 15 -0.5
v 6 5 0.5
v 6 5 -0.5
v 6 6 0.5
v 6 6 -0.5
v 6 13 0.5
v 6 13 -0.5
v 6 14 0.5
v 6 14 -0.5
v 7 6 0.5
v 7 6 -0.5
v 7 8 0.5
v 7 8 -0.5
v 7 12 0.5
v 7 12 -0.5
v 7 13 0.5
v 7 13 -0.5
v 8 8 0.5
v 8 8 -0.5
v 8 12 0.5
v 8 12 -0.5
v -8 8 0.5
v -8 12 0.5
v -7 6 0.5
v -7 8 0.5
v -7 12 0.5
v -7 13 0.5
v -6 5 0.5
v -6 6 0.5
v -6 8 0.5
v -6 9 0.5
v -6 10 0.5
v -6 11 0.5
v -6 12 0.5
v -6 13 0.5
v -6 14 0.5
v -5 4 0.5
v -5 5 0.5
v -5 6 0.5
v -5 9 0.5
v -5 10 0.5
v -5 11 0.5
v -5 12 0.5
v -5 13 0.5
v -5 14 0.5
v -5 15 0.5
v -4 3 0.5
v -4 4 0.5
v -4 5 0.5
v -4 11 0.5
v -4 12 0.5
v -4 13 0.5
v -3 2 0.5
v -3 3 0.5
v -3 4 0.5
v -3 12 0.5
v -3 13 0.5
v -2 1 0.5
v -2 2 0.5
v -2 3 0.5
v -2 12 0.5
v -2 13 0.5
v -2 14 0.5
v -2 15 0.5
v -1 0 0.5
v -1 1 0.5
v -1 2 0.5
v -1 12 0.5
v -1 13 0.5
v -1 14 0.5
v 1 0 0.5
v 1 1 0.5
v 1 2 0.5
v 1 12 0.5
v 1 13 0.5
v 1 14 0.5
v 2 1 0.5
v 2 2 0.5
v 2 3 0.5
v 2 13 0.5
v 2 14 0.5
v 2 15 0.5
v 3 2 0.5
v 3 3 0.5
v 3 4 0.5
v 4 3 0.5
v 4 4 0.5
v 4 5 0.5
v 5 4 0.5
v 5 5 0.5
v 5 6 0.5
v 5 13 0.5
v 5 14 0.5
v 5 15 0.5
v 6 5 0.5
v 6 6 0.5
v 6 8 0.5
v 6 12 0.5
v 6 13 0.5
v 6 14 0.5
v 7 6 0.5
v 7 8 0.5
v 7 12 0.5
v 7 13 0.5
v 8 8 0.5
v 8 12 0.5
v -8 8 -0.5
v -8 12 -0.5
v -7 6 -0.5
v -7 8 -0.5
v -7 12 -0.5
v -7 13 -0.5
v -6 5 -0.5
v -6 6 -0.5
v -6 8 -0.5
v -6 9 -0.5
v -6 10 -0.5
v -6 11 -0.5
v -6 12 -0.5
v -6 13 -0.5
v -6 14 -0.5
v -5 4 -0.5
v -5 5 -0.5
v -5 6 -0.5
v -5 9 -0.5
v -5 10 -0.5
v -5 11 -0.5
v -5 12 -0.5
v -5 13 -0.5
v -5 14 -0.5
v -5 15 -0.5
v -4 3 -0.5
v -4 4 -0.5
v -4 5 -0.5
v -4 11 -0.5
v -4 12 -0.5
v -4 13 -0.5
v -3 2 -0.5
v -3 3 -0.5
v -3 4 -0.5
v -3 12 -0.5
v -3 13 -0.5
v -2 1 -0.5
v -2 2 -0.5
v -2 3 -0.5
v -2 12 -0.5
v -2 13 -0.5
v -2 14 -0.5
v -2 15 -0.5
v -1 0 -0.5
v -1 1 -0.5
v -1 2 -0.5
v -1 12 -0.5
v -1 13 -0.5
v -1 14 -0.5
v 1 0 -0.5
v 1 1 -0.5
v 1 2 -0.5
v 1 12 -0.5
v 1 13 -0.5
v 1 14 -0.5
v 2 1 -0.5
v 2 2 -0.5
v 2 3 -0.5
v 2 13 -0.5
v 2 14 -0.5
v 2 15 -0.5
v 3 2 -0.5
v 3 3 -0.5
v 3 4 -0.5
v 4 3 -0.5
v 4 4 -0.5
v 4 5 -0.5
v 5 4 -0.5
v 5 5 -0.5
v 5 6 -0.5
v 5 13 -0.5
v 5 14 -0.5
v 5 15 -0.5
v 6 5 -0.5
v 6 6 -0.5
v 6 8 -0.5
v 6 12 -0.5
v 6 13 -0.5
v 6 14 -0.5
v 7 6 -0.5
v 7 8 -0.5
v 7 12 -0.5
v 7 13 -0.5
v 8 8 -0.5
v 8 12 -0.5
v -1 0 0.5
v 1 0 0.5
v -1 0 -0.5
v 1 0 -0.5
v -2 1 0.5
v -1 1 0.5
v 1 1 0.5
v 2 1 0.5
v -2 1 -0.5
v -1 1 -0.5
v 1 1 -0.5
v 2 1 -0.5
v -3 2 0.5
v -2 2 0.5
v 2 2 0.5
v 3 2 0.5
v -3 2 -0.5
v -2 2 -0.5
v 2 2 -0.5
v 3 2 -0.5
v -4 3 0.5
v -3 3 0.5
v 3 3 0.5
v 4 3 0.5
v -4 3 -0.5
v -3 3 -0.5
v 3 3 -0.5
v 4 3 -0.5
v -5 4 0.5
v -4 4 0.5
v 4 4 0.5
v 5 4 0.5
v -5 4 -0.5
v -4 4 -0.5
v 4 4 -0.5
v 5 4 -0.5
v -6 5 0.5
v -5 5 0.5
v 5 5 0.5
v 6 5 0.5
v -6 5 -0.5
v -5 5 -0.5
v 5 5 -0.5
v 6 5 -0.5
v -7 6 0.5
v -6 6 0.5
v 6 6 0.5
v 7 6 0.5
v -7 6 -0.5
v -6 6 -0.5
v 6 6 -0.5
v 7 6 -0.5
v -8 8 0.5
v -7 8 0.5
v 7 8 0.5
v 8 8 0.5
v -8 8 -0.5
v -7 8 -0.5
v 7 8 -0.5
v 8 8 -0.5
v -8 12 0.5
v -7 12 0.5
v 7 12 0.5
v 8 12 0.5
v -8 12 -0.5
v -7 12 -0.5
v 7 12 -0.5
v 8 12 -0.5
v -7 13 0.5
v -6 13 0.5
v -1 13 0.5
v 1 13 0.5
v 6 13 0.5
v 7 13 0.5
v -7 13 -0.5
v -6 13 -0.5
v -1 13 -0.5
v 1 13 -0.5
v 6 13 -0.5
v 7 13 -0.5
v -6 14 0.5
v -5 14 0.5
v -2 14 0.5
v -1 14 0.5
v 1 14 0.5
v 2 14 0.5
v 5 14 0.5
v 6 14 0.5
v -6 14 -0.5
v -5 14 -0.5
v -2 14 -0.5
v -1 14 -0.5
v 1 14 -0.5
v 2 14 -0.5
v 5 14 -0.5
v 6 14 -0.5
v -5 15 0.5
v -2 15 0.5
v 2 15 0.5
v 5 15 0.5
v -5 15 -0.5
v -2 15 -0.5
v 2 15 -0.5
v 5 15 -0.5

# faces
f 3/4/1 2/4/1 1/4/1
f 4/4/1 2/4/1 3/4/1
f 7/4/1 6/4/1 5/4/1
f 8/4/1 6/4/1 7/4/1
f 11/4/1 10/4/1 9/4/1
f 12/4/1 10/4/1 11/4/1
f 15/4/1 14/4/1 13/4/1
f 16/4/1 14/4/1 15/4/1
f 19/4/1 18/4/1 17/4/1
f 20/4/1 18/4/1 19/4/1
f 23/4/1 22/4/1 21/4/1
f 24/4/1 22/4/1 23/4/1
f 27/4/1 26/4/1 25/4/1
f 28/4/1 26/4/1 27/4/1
f 31/4/1 30/4/1 29/4/1
f 32/4/1 30/4/1 31/4/1
f 35/4/1 34/4/1 33/4/1
f 36/4/1 34/4/1 35/4/1
f 39/4/1 38/4/1 37/4/1
f 40/4/1 38/4/1 39/4/1
f 43/4/1 42/4/1 41/4/1
f 44/4/1 42/4/1 43/4/1
f 47/4/1 46/4/1 45/4/1
f 48/4/1 46/4/1 47/4/1
f 51/4/1 50/4/1 49/4/1
f 52/4/1 50/4/1 51/4/1
f 53/4/2 54/4/2 55/4/2
f 55/4/2 54/4/2 56/4/2
f 57/4/2 58/4/2 59/4/2
f 59/4/2 58/4/2 60/4/2
f 61/4/2 62/4/2 63/4/2
f 63/4/2 62/4/2 64/4/2
f 65/4/2 66/4/2 67/4/2
f 67/4/2 66/4/2 68/4/2
f 69/4/2 70/4/2 71/4/2
f 71/4/2 70/4/2 72/4/2
f 73/4/2 74/4/2 75/4/2
f 75/4/2 74/4/2 76/4/2
f 77/4/2 78/4/2 79/4/2
f 79/4/2 78/4/2 80/4/2
f 81/4/2 82/4/2 83/4/2
f 83/4/2 82/4/2 84/4/2
f 85/4/2 86/4/2 87/4/2
f 87/4/2 86/4/2 88/4/2
f 89/4/2 90/4/2 91/4/2
f 91/4/2 90/4/2 92/4/2
f 93/4/2 94/4/2 95/4/2
f 95/4/2 94/4/2 96/4/2
f 97/4/2 98/4/2 99/4/2
f 99/4/2 98/4/2 100/4/2
f 101/4/2 102/4/2 103/4/2
f 103/4/2 102/4/2 104/4/2
f 108/4/3 106/4/3 105/4/3
f 109/4/3 106/4/3 108/4/3
f 112/4/3 108/4/3 107/4/3
f 113/1/3 109/1/3 108/1/3
f 113/4/3 108/4/3 112/4/3
f 114/1/3 109/1/3 113/1/3
f 115/1/3 109/1/3 114/1/3
f 116/1/3 109/1/3 115/1/3
f 117/4/3 110/4/3 109/4/3
f 117/1/3 109/1/3 116/1/3
f 118/4/3 110/4/3 117/4/3
f 121/4/3 112/4/3 111/4/3
f 122/1/3 113/1/3 112/1/3
f 122/1/3 114/1/3 113/1/3
f 122/4/3 112/4/3 121/4/3
f 123/2/3 115/2/3 114/2/3
f 123/1/3 114/1/3 122/1/3
f 124/3/3 116/3/3 115/3/3
f 124/2/3 115/2/3 123/2/3
f 125/2/3 117/2/3 116/2/3
f 125/3/3 116/3/3 124/3/3
f 126/1/3 118/1/3 117/1/3
f 126/2/3 117/2/3 125/2/3
f 127/4/3 119/4/3 118/4/3
f 127/1/3 118/1/3 126/1/3
f 128/4/3 119/4/3 127/4/3
f 131/4/3 121/4/3 120/4/3
f 132/1/3 123/1/3 122/1/3
f 132/1/3 122/1/3 121/1/3
f 132/4/3 121/4/3 131/4/3
f 132/1/3 124/1/3 123/1/3
f 132/1/3 125/1/3 124/1/3
f 133/3/3 126/3/3 125/3/3
f 133/1/3 125/1/3 132/1/3
f 134/2/3 127/2/3 126/2/3
f 134/3/3 126/3/3 133/3/3
f 135/1/3 128/1/3 127/1/3
f 135/2/3 127/2/3 134/2/3
f 137/4/3 131/4/3 130/4/3
f 138/1/3 132/1/3 131/1/3
f 138/1/3 134/1/3 133/1/3
f 138/4/3 131/4/3 137/4/3
f 138/1/3 133/1/3 132/1/3
f 139/3/3 135/3/3 134/3/3
f 139/1/3 134/1/3 138/1/3
f 140/1/3 128/1/3 135/1/3
f 140/3/3 135/3/3 139/3/3
f 142/4/3 137/4/3 136/4/3
f 143/1/3 139/1/3 138/1/3
f 143/1/3 138/1/3 137/1/3
f 143/4/3 137/4/3 142/4/3
f 144/2/3 140/2/3 139/2/3
f 144/1/3 139/1/3 143/1/3
f 145/1/3 128/1/3 140/1/3
f 145/2/3 140/2/3 144/2/3
f 146/4/3 129/4/3 128/4/3
f 146/1/3 128/1/3 145/1/3
f 147/4/3 129/4/3 146/4/3
f 149/4/3 142/4/3 141/4/3
f 150/1/3 144/1/3 143/1/3
f 150/1/3 145/1/3 144/1/3
f 150/4/3 142/4/3 149/4/3
f 150/1/3 143/1/3 142/1/3
f 151/1/3 145/1/3 150/1/3
f 152/4/3 146/4/3 145/4/3
f 152/1/3 145/1/3 151/1/3
f 153/4/3 146/4/3 152/4/3
f 154/4/3 149/4/3 148/4/3
f 155/1/3 151/1/3 150/1/3
f 155/4/3 149/4/3 154/4/3
f 155/1/3 150/1/3 149/1/3
f 156/1/3 151/1/3 155/1/3
f 157/4/3 152/4/3 151/4/3
f 157/1/3 151/1/3 156/1/3
f 158/4/3 152/4/3 157/4/3
f 160/4/3 156/4/3 155/4/3
f 161/1/3 158/1/3 157/1/3
f 161/4/3 156/4/3 160/4/3
f 161/1/3 157/1/3 156/1/3
f 162/1/3 158/1/3 161/1/3
f 163/4/3 159/4/3 158/4/3
f 163/1/3 158/1/3 162/1/3
f 164/4/3 159/4/3 163/4/3
f 166/4/3 162/4/3 161/4/3
f 167/1/3 164/1/3 163/1/3
f 167/4/3 162/4/3 166/4/3
f 167/1/3 163/1/3 162/1/3
f 168/1/3 164/1/3 167/1/3
f 169/4/3 168/4/3 167/4/3
f 170/1/3 164/1/3 168/1/3
f 170/4/3 168/4/3 169/4/3
f 171/1/3 164/1/3 170/1/3
f 172/4/3 171/4/3 170/4/3
f 173/1/3 164/1/3 171/1/3
f 173/4/3 171/4/3 172/4/3
f 174/1/3 164/1/3 173/1/3
f 175/1/3 164/1/3 174/1/3
f 176/4/3 165/4/3 164/4/3
f 176/1/3 164/1/3 175/1/3
f 177/4/3 165/4/3 176/4/3
f 178/4/3 174/4/3 173/4/3
f 179/1/3 175/1/3 174/1/3
f 179/4/3 174/4/3 178/4/3
f 180/1/3 175/1/3 179/1/3
f 181/1/3 175/1/3 180/1/3
f 182/4/3 176/4/3 175/4/3
f 182/1/3 175/1/3 181/1/3
f 183/4/3 176/4/3 182/4/3
f 184/4/3 180/4/3 179/4/3
f 185/1/3 181/1/3 180/1/3
f 185/4/3 180/4/3 184/4/3
f 186/4/3 182/4/3 181/4/3
f 186/1/3 181/1/3 185/1/3
f 187/4/3 182/4/3 186/4/3
f 188/4/3 186/4/3 185/4/3
f 189/4/3 186/4/3 188/4/3
f 190/4/4 191/4/4 193/4/4
f 193/4/4 191/4/4 194/4/4
f 192/4/4 193/4/4 197/4/4
f 193/1/4 194/1/4 198/1/4
f 197/4/4 193/4/4 198/4/4
f 198/1/4 194/1/4 199/1/4
f 199/1/4 194/1/4 200/1/4
f 200/1/4 194/1/4 201/1/4
f 194/4/4 195/4/4 202/4/4
f 201/1/4 194/1/4 202/1/4
f 202/4/4 195/4/4 203/4/4
f 196/4/4 197/4/4 206/4/4
f 197/1/4 198/1/4 207/1/4
f 198/1/4 199/1/4 207/1/4
f 206/4/4 197/4/4 207/4/4
f 199/2/4 200/2/4 208/2/4
f 207/1/4 199/1/4 208/1/4
f 200/3/4 201/3/4 209/3/4
f 208/2/4 200/2/4 209/2/4
f 201/2/4 202/2/4 210/2/4
f 209/3/4 201/3/4 210/3/4
f 202/1/4 203/1/4 211/1/4
f 210/2/4 202/2/4 211/2/4
f 203/4/4 204/4/4 212/4/4
f 211/1/4 203/1/4 212/1/4
f 212/4/4 204/4/4 213/4/4
f 205/4/4 206/4/4 216/4/4
f 207/1/4 208/1/4 217/1/4
f 206/1/4 207/1/4 217/1/4
f 216/4/4 206/4/4 217/4/4
f 208/1/4 209/1/4 217/1/4
f 209/1/4 210/1/4 217/1/4
f 210/3/4 211/3/4 218/3/4
f 217/1/4 210/1/4 218/1/4
f 211/2/4 212/2/4 219/2/4
f 218/3/4 211/3/4 219/3/4
f 212/1/4 213/1/4 220/1/4
f 219/2/4 212/2/4 220/2/4
f 215/4/4 216/4/4 222/4/4
f 216/1/4 217/1/4 223/1/4
f 218/1/4 219/1/4 223/1/4
f 222/4/4 216/4/4 223/4/4
f 217/1/4 218/1/4 223/1/4
f 219/3/4 220/3/4 224/3/4
f 223/1/4 219/1/4 224/1/4
f 220/1/4 213/1/4 225/1/4
f 224/3/4 220/3/4 225/3/4
f 221/4/4 222/4/4 227/4/4
f 223/1/4 224/1/4 228/1/4
f 222/1/4 223/1/4 228/1/4
f 227/4/4 222/4/4 228/4/4
f 224/2/4 225/2/4 229/2/4
f 228/1/4 224/1/4 229/1/4
f 225/1/4 213/1/4 230/1/4
f 229/2/4 225/2/4 230/2/4
f 213/4/4 214/4/4 231/4/4
f 230/1/4 213/1/4 231/1/4
f 231/4/4 214/4/4 232/4/4
f 226/4/4 227/4/4 234/4/4
f 228/1/4 229/1/4 235/1/4
f 229/1/4 230/1/4 235/1/4
f 234/4/4 227/4/4 235/4/4
f 227/1/4 228/1/4 235/1/4
f 235/1/4 230/1/4 236/1/4
f 230/4/4 231/4/4 237/4/4
f 236/1/4 230/1/4 237/1/4
f 237/4/4 231/4/4 238/4/4
f 233/4/4 234/4/4 239/4/4
f 235/1/4 236/1/4 240/1/4
f 239/4/4 234/4/4 240/4/4
f 234/1/4 235/1/4 240/1/4
f 240/1/4 236/1/4 241/1/4
f 236/4/4 237/4/4 242/4/4
f 241/1/4 236/1/4 242/1/4
f 242/4/4 237/4/4 243/4/4
f 240/4/4 241/4/4 245/4/4
f 242/1/4 243/1/4 246/1/4
f 245/4/4 241/4/4 246/4/4
f 241/1/4 242/1/4 246/1/4
f 246/1/4 243/1/4 247/1/4
f 243/4/4 244/4/4 248/4/4
f 247/1/4 243/1/4 248/1/4
f 248/4/4 244/4/4 249/4/4
f 246/4/4 247/4/4 251/4/4
f 248/1/4 249/1/4 252/1/4
f 251/4/4 247/4/4 252/4/4
f 247/1/4 248/1/4 252/1/4
f 252/1/4 249/1/4 253/1/4
f 252/4/4 253/4/4 254/4/4
f 253/1/4 249/1/4 255/1/4
f 254/4/4 253/4/4 255/4/4
f 255/1/4 249/1/4 256/1/4
f 255/4/4 256/4/4 257/4/4
f 256/1/4 249/1/4 258/1/4
f 257/4/4 256/4/4 258/4/4
f 258/1/4 249/1/4 259/1/4
f 259/1/4 249/1/4 260/1/4
f 249/4/4 250/4/4 261/4/4
f 260/1/4 249/1/4 261/1/4
f 261/4/4 250/4/4 262/4/4
f 258/4/4 259/4/4 263/4/4
f 259/1/4 260/1/4 264/1/4
f 263/4/4 259/4/4 264/4/4
f 264/1/4 260/1/4 265/1/4
f 265/1/4 260/1/4 266/1/4
f 260/4/4 261/4/4 267/4/4
f 266/1/4 260/1/4 267/1/4
f 267/4/4 261/4/4 268/4/4
f 264/4/4 265/4/4 269/4/4
f 265/1/4 266/1/4 270/1/4
f 269/4/4 265/4/4 270/4/4
f 266/4/4 267/4/4 271/4/4
f 270/1/4 266/1/4 271/1/4
f 271/4/4 267/4/4 272/4/4
f 270/4/4 271/4/4 273/4/4
f 273/4/4 271/4/4 274/4/4
f 277/4/5 276/4/5 275/4/5
f 278/4/5 276/4/5 277/4/5
f 283/4/5 280/4/5 279/4/5
f 284/4/5 280/4/5 283/4/5
f 285/4/5 282/4/5 281/4/5
f 286/4/5 282/4/5 285/4/5
f 291/4/5 288/4/5 287/4/5
f 292/4/5 288/4/5 291/4/5
f 293/4/5 290/4/5 289/4/5
f 294/4/5 290/4/5 293/4/5
f 299/4/5 296/4/5 295/4/5
f 300/4/5 296/4/5 299/4/5
f 301/4/5 298/4/5 297/4/5
f 302/4/5 298/4/5 301/4/5
f 307/4/5 304/4/5 303/4/5
f 308/4/5 304/4/5 307/4/5
f 309/4/5 306/4/5 305/4/5
f 310/4/5 306/4/5 309/4/5
f 315/4/5 312/4/5 311/4/5
f 316/4/5 312/4/5 315/4/5
f 317/4/5 314/4/5 313/4/5
f 318/4/5 314/4/5 317/4/5
f 323/4/5 320/4/5 319/4/5
f 324/4/5 320/4/5 323/4/5
f 325/4/5 322/4/5 321/4/5
f 326/4/5 322/4/5 325/4/5
f 331/4/5 328/4/5 327/4/5
f 332/4/5 328/4/5 331/4/5
f 333/4/5 330/4/5 329/4/5
f 334/4/5 330/4/5 333/4/5
f 335/4/6 336/4/6 339/4/6
f 339/4/6 336/4/6 340/4/6
f 337/4/6 338/4/6 341/4/6
f 341/4/6 338/4/6 342/4/6
f 343/4/6 344/4/6 349/4/6
f 349/4/6 344/4/6 350/4/6
f 345/4/6 346/4/6 351/4/6
f 351/4/6 346/4/6 352/4/6
f 347/4/6 348/4/6 353/4/6
f 353/4/6 348/4/6 354/4/6
f 355/4/6 356/4/6 363/4/6
f 363/4/6 356/4/6 364/4/6
f 357/4/6 358/4/6 365/4/6
f 365/4/6 358/4/6 366/4/6
f 359/4/6 360/4/6 367/4/6
f 367/4/6 360/4/6 368/4/6
f 361/4/6 362/4/6 369/4/6
f 369/4/6 362/4/6 370/4/6
f 371/4/6 372/4/6 375/4/6
f 375/4/6 372/4/6 376/4/6
f 373/4/6 374/4/6 377/4/6
f 377/4/6 374/4/6 378/4/6
