# MagicaVoxel @ Ephtracy

# group
g Oak_tree

# material
mtllib Oak_tree.mtl
usemtl palette

# normals
vn -1 0 0
vn 1 0 0
vn 0 0 1
vn 0 0 -1
vn 0 -1 0
vn 0 1 0

# texcoords
vt 0.892578 0.5
vt 0.990234 0.5

# verts
v -2.5 3 1.5
v -2.5 3 -0.5
v -2.5 4 -0.5
v -2.5 4 -2.5
v -2.5 5 1.5
v -2.5 5 -0.5
v -2.5 6 -0.5
v -2.5 6 -2.5
v -1.5 2 0.5
v -1.5 2 -0.5
v -1.5 3 0.5
v -1.5 3 -0.5
v -1.5 3 -1.5
v -1.5 4 -0.5
v -1.5 4 -1.5
v -1.5 5 0.5
v -1.5 5 -0.5
v -1.5 6 -0.5
v -1.5 6 -1.5
v -1.5 7 0.5
v -1.5 7 -1.5
v -0.5 0 0.5
v -0.5 0 -0.5
v -0.5 2 0.5
v -0.5 2 -0.5
v -0.5 4 2.5
v -0.5 4 1.5
v -0.5 5 1.5
v -0.5 5 0.5
v -0.5 6 2.5
v -0.5 6 0.5
v 0.5 3 0.5
v 0.5 3 -0.5
v 0.5 3 -1.5
v 0.5 4 0.5
v 0.5 4 -0.5
v 0.5 4 -1.5
v 0.5 4 -2.5
v 0.5 6 -1.5
v 0.5 6 -2.5
v -0.5 3 0.5
v -0.5 3 -0.5
v -0.5 3 -1.5
v -0.5 4 0.5
v -0.5 4 -0.5
v -0.5 4 -1.5
v -0.5 4 -2.5
v -0.5 6 -1.5
v -0.5 6 -2.5
v 0.5 0 0.5
v 0.5 0 -0.5
v 0.5 3 1.5
v 0.5 3 0.5
v 0.5 3 -0.5
v 0.5 4 1.5
v 0.5 4 0.5
v 0.5 5 0.5
v 0.5 5 -0.5
v 0.5 6 0.5
v 0.5 6 -0.5
v 0.5 6 -1.5
v 0.5 7 0.5
v 0.5 7 -1.5
v 1.5 3 0.5
v 1.5 3 -0.5
v 1.5 3 -1.5
v 1.5 4 2.5
v 1.5 4 0.5
v 1.5 4 -0.5
v 1.5 4 -1.5
v 1.5 5 0.5
v 1.5 5 -0.5
v 1.5 6 2.5
v 1.5 6 0.5
v 2.5 4 -0.5
v 2.5 4 -2.5
v 2.5 6 -0.5
v 2.5 6 -2.5
v -0.5 4 2.5
v -0.5 6 2.5
v 1.5 4 2.5
v 1.5 6 2.5
v -2.5 3 1.5
v -2.5 5 1.5
v -0.5 3 1.5
v -0.5 4 1.5
v -0.5 5 1.5
v 0.5 3 1.5
v 0.5 4 1.5
v -1.5 2 0.5
v -1.5 3 0.5
v -1.5 5 0.5
v -1.5 7 0.5
v -0.5 0 0.5
v -0.5 2 0.5
v -0.5 3 0.5
v -0.5 5 0.5
v -0.5 6 0.5
v 0.5 0 0.5
v 0.5 3 0.5
v 0.5 4 0.5
v 0.5 6 0.5
v 0.5 7 0.5
v 1.5 3 0.5
v 1.5 4 0.5
v -2.5 5 -0.5
v -2.5 6 -0.5
v -1.5 5 -0.5
v -1.5 6 -0.5
v 0.5 5 -0.5
v 0.5 6 -0.5
v 1.5 4 -0.5
v 1.5 5 -0.5
v 2.5 4 -0.5
v 2.5 6 -0.5
v -0.5 3 0.5
v -0.5 4 0.5
v 0.5 3 0.5
v 0.5 4 0.5
v 0.5 5 0.5
v 0.5 6 0.5
v 1.5 5 0.5
v 1.5 6 0.5
v -2.5 3 -0.5
v -2.5 4 -0.5
v -1.5 2 -0.5
v -1.5 3 -0.5
v -1.5 4 -0.5
v -0.5 0 -0.5
v -0.5 2 -0.5
v -0.5 3 -0.5
v 0.5 0 -0.5
v 0.5 3 -0.5
v -1.5 3 -1.5
v -1.5 4 -1.5
v -1.5 6 -1.5
v -1.5 7 -1.5
v -0.5 3 -1.5
v -0.5 4 -1.5
v -0.5 6 -1.5
v 0.5 3 -1.5
v 0.5 4 -1.5
v 0.5 6 -1.5
v 0.5 7 -1.5
v 1.5 3 -1.5
v 1.5 4 -1.5
v -2.5 4 -2.5
v -2.5 6 -2.5
v -0.5 4 -2.5
v -0.5 6 -2.5
v 0.5 4 -2.5
v 0.5 6 -2.5
v 2.5 4 -2.5
v 2.5 6 -2.5
v -0.5 0 0.5
v 0.5 0 0.5
v -0.5 0 -0.5
v 0.5 0 -0.5
v -1.5 2 0.5
v -0.5 2 0.5
v -1.5 2 -0.5
v -0.5 2 -0.5
v -2.5 3 1.5
v -0.5 3 1.5
v 0.5 3 1.5
v -1.5 3 0.5
v -0.5 3 0.5
v 0.5 3 0.5
v 1.5 3 0.5
v -2.5 3 -0.5
v -1.5 3 -0.5
v -0.5 3 -0.5
v 0.5 3 -0.5
v 1.5 3 -0.5
v -1.5 3 -1.5
v -0.5 3 -1.5
v 0.5 3 -1.5
v 1.5 3 -1.5
v -0.5 4 2.5
v 1.5 4 2.5
v -0.5 4 1.5
v 0.5 4 1.5
v -0.5 4 0.5
v 0.5 4 0.5
v 1.5 4 0.5
v -2.5 4 -0.5
v -1.5 4 -0.5
v -0.5 4 -0.5
v 0.5 4 -0.5
v 1.5 4 -0.5
v 2.5 4 -0.5
v -1.5 4 -1.5
v -0.5 4 -1.5
v 0.5 4 -1.5
v 1.5 4 -1.5
v -2.5 4 -2.5
v -0.5 4 -2.5
v 0.5 4 -2.5
v 2.5 4 -2.5
v -0.5 3 0.5
v 0.5 3 0.5
v -0.5 3 -0.5
v 0.5 3 -0.5
v -2.5 5 1.5
v -0.5 5 1.5
v -1.5 5 0.5
v -0.5 5 0.5
v 0.5 5 0.5
v 1.5 5 0.5
v -2.5 5 -0.5
v -1.5 5 -0.5
v 0.5 5 -0.5
v 1.5 5 -0.5
v -0.5 6 2.5
v 1.5 6 2.5
v -0.5 6 0.5
v 0.5 6 0.5
v 1.5 6 0.5
v -2.5 6 -0.5
v -1.5 6 -0.5
v 0.5 6 -0.5
v 2.5 6 -0.5
v -1.5 6 -1.5
v -0.5 6 -1.5
v 0.5 6 -1.5
v -2.5 6 -2.5
v -0.5 6 -2.5
v 0.5 6 -2.5
v 2.5 6 -2.5
v -1.5 7 0.5
v 0.5 7 0.5
v -1.5 7 -1.5
v 0.5 7 -1.5

# faces
f 3/1/1 2/1/1 1/1/1
f 5/1/1 3/1/1 1/1/1
f 5/1/1 4/1/1 3/1/1
f 6/1/1 4/1/1 5/1/1
f 7/1/1 4/1/1 6/1/1
f 8/1/1 4/1/1 7/1/1
f 11/2/1 10/2/1 9/2/1
f 12/2/1 10/2/1 11/2/1
f 14/2/1 13/2/1 12/2/1
f 15/2/1 13/2/1 14/2/1
f 18/1/1 17/1/1 16/1/1
f 20/1/1 18/1/1 16/1/1
f 20/1/1 19/1/1 18/1/1
f 21/1/1 19/1/1 20/1/1
f 24/2/1 23/2/1 22/2/1
f 25/2/1 23/2/1 24/2/1
f 28/1/1 27/1/1 26/1/1
f 30/1/1 28/1/1 26/1/1
f 30/1/1 29/1/1 28/1/1
f 31/1/1 29/1/1 30/1/1
f 35/1/1 33/1/1 32/1/1
f 36/2/1 34/2/1 33/2/1
f 36/1/1 33/1/1 35/1/1
f 37/2/1 34/2/1 36/2/1
f 39/1/1 38/1/1 37/1/1
f 40/1/1 38/1/1 39/1/1
f 41/1/2 42/1/2 44/1/2
f 42/2/2 43/2/2 45/2/2
f 44/1/2 42/1/2 45/1/2
f 45/2/2 43/2/2 46/2/2
f 46/1/2 47/1/2 48/1/2
f 48/1/2 47/1/2 49/1/2
f 50/2/2 51/2/2 53/2/2
f 53/2/2 51/2/2 54/2/2
f 52/2/2 53/2/2 55/2/2
f 55/2/2 53/2/2 56/2/2
f 57/1/2 58/1/2 59/1/2
f 59/1/2 58/1/2 60/1/2
f 59/1/2 60/1/2 62/1/2
f 60/1/2 61/1/2 62/1/2
f 62/1/2 61/1/2 63/1/2
f 64/1/2 65/1/2 68/1/2
f 65/2/2 66/2/2 69/2/2
f 68/1/2 65/1/2 69/1/2
f 69/2/2 66/2/2 70/2/2
f 67/1/2 68/1/2 71/1/2
f 68/1/2 69/1/2 71/1/2
f 71/1/2 69/1/2 72/1/2
f 67/1/2 71/1/2 73/1/2
f 73/1/2 71/1/2 74/1/2
f 75/1/2 76/1/2 77/1/2
f 77/1/2 76/1/2 78/1/2
f 81/1/3 80/1/3 79/1/3
f 82/1/3 80/1/3 81/1/3
f 85/1/3 84/1/3 83/1/3
f 86/1/3 84/1/3 85/1/3
f 87/1/3 84/1/3 86/1/3
f 88/2/3 86/2/3 85/2/3
f 89/2/3 86/2/3 88/2/3
f 95/2/3 91/2/3 90/2/3
f 96/2/3 91/2/3 95/2/3
f 97/1/3 93/1/3 92/1/3
f 98/1/3 93/1/3 97/1/3
f 99/2/3 96/2/3 95/2/3
f 99/2/3 95/2/3 94/2/3
f 100/2/3 96/2/3 99/2/3
f 102/1/3 93/1/3 98/1/3
f 103/1/3 93/1/3 102/1/3
f 104/1/3 101/1/3 100/1/3
f 105/1/3 101/1/3 104/1/3
f 108/1/3 107/1/3 106/1/3
f 109/1/3 107/1/3 108/1/3
f 113/1/3 111/1/3 110/1/3
f 114/1/3 113/1/3 112/1/3
f 115/1/3 111/1/3 113/1/3
f 115/1/3 113/1/3 114/1/3
f 116/2/4 117/2/4 118/2/4
f 118/2/4 117/2/4 119/2/4
f 120/1/4 121/1/4 122/1/4
f 122/1/4 121/1/4 123/1/4
f 124/1/4 125/1/4 127/1/4
f 127/1/4 125/1/4 128/1/4
f 126/2/4 127/2/4 130/2/4
f 130/2/4 127/2/4 131/2/4
f 129/2/4 130/2/4 132/2/4
f 130/2/4 131/2/4 132/2/4
f 132/2/4 131/2/4 133/2/4
f 134/2/4 135/2/4 138/2/4
f 138/2/4 135/2/4 139/2/4
f 136/1/4 137/1/4 140/1/4
f 139/1/4 140/1/4 142/1/4
f 140/1/4 137/1/4 143/1/4
f 142/1/4 140/1/4 143/1/4
f 143/1/4 137/1/4 144/1/4
f 141/2/4 142/2/4 145/2/4
f 145/2/4 142/2/4 146/2/4
f 147/1/4 148/1/4 149/1/4
f 149/1/4 148/1/4 150/1/4
f 151/1/4 152/1/4 153/1/4
f 153/1/4 152/1/4 154/1/4
f 157/2/5 156/2/5 155/2/5
f 158/2/5 156/2/5 157/2/5
f 161/2/5 160/2/5 159/2/5
f 162/2/5 160/2/5 161/2/5
f 166/1/5 164/1/5 163/1/5
f 167/2/5 165/2/5 164/2/5
f 167/1/5 164/1/5 166/1/5
f 168/2/5 165/2/5 167/2/5
f 170/1/5 166/1/5 163/1/5
f 171/1/5 166/1/5 170/1/5
f 173/1/5 169/1/5 168/1/5
f 174/1/5 169/1/5 173/1/5
f 175/2/5 172/2/5 171/2/5
f 176/2/5 172/2/5 175/2/5
f 177/2/5 174/2/5 173/2/5
f 178/2/5 174/2/5 177/2/5
f 181/1/5 180/1/5 179/1/5
f 182/1/5 180/1/5 181/1/5
f 184/1/5 180/1/5 182/1/5
f 185/1/5 180/1/5 184/1/5
f 188/1/5 184/1/5 183/1/5
f 189/1/5 184/1/5 188/1/5
f 192/1/5 187/1/5 186/1/5
f 193/1/5 189/1/5 188/1/5
f 194/1/5 189/1/5 193/1/5
f 195/1/5 191/1/5 190/1/5
f 196/1/5 192/1/5 186/1/5
f 196/1/5 193/1/5 192/1/5
f 197/1/5 193/1/5 196/1/5
f 198/1/5 195/1/5 194/1/5
f 199/1/5 191/1/5 195/1/5
f 199/1/5 195/1/5 198/1/5
f 200/2/6 201/2/6 202/2/6
f 202/2/6 201/2/6 203/2/6
f 204/1/6 205/1/6 206/1/6
f 206/1/6 205/1/6 207/1/6
f 204/1/6 206/1/6 210/1/6
f 210/1/6 206/1/6 211/1/6
f 208/1/6 209/1/6 212/1/6
f 212/1/6 209/1/6 213/1/6
f 214/1/6 215/1/6 216/1/6
f 216/1/6 215/1/6 217/1/6
f 217/1/6 215/1/6 218/1/6
f 219/1/6 220/1/6 223/1/6
f 221/1/6 222/1/6 225/1/6
f 223/1/6 224/1/6 226/1/6
f 219/1/6 223/1/6 226/1/6
f 226/1/6 224/1/6 227/1/6
f 225/1/6 222/1/6 228/1/6
f 228/1/6 222/1/6 229/1/6
f 230/1/6 231/1/6 232/1/6
f 232/1/6 231/1/6 233/1/6
